<?xml version="1.0"?>
<svg width="500" height="500" xmlns="http://www.w3.org/2000/svg" xmlns:svg="http://www.w3.org/2000/svg" version="1.2">
 <g class="layer" display="inline">
  <title>Layer 1</title>
  <g id="SVGRepo_iconCarrier" transform="matrix(24.8619 0 0 24.8619 -47.7238 -47.7238)"/>
  <rect fill="#2a2d32" height="284" id="svg_9" width="346" x="84" y="108.5"/>
  <path d="m337.09,42.4l-173.97,0c-75.57,0 -120.61,45.05 -120.61,120.61l0,173.76c0,75.77 45.05,120.82 120.61,120.82l173.76,0c75.57,0 120.61,-45.05 120.61,-120.61l0,-173.97c0.21,-75.57 -44.84,-120.61 -120.41,-120.61zm-166.29,306.62c-0.42,0 -1.04,0 -1.45,0c-20.14,-1.87 -39.03,-11.21 -53.15,-26.16c-33.22,-34.88 -33.22,-91.55 0,-126.43l45.46,-47.75c16.19,-17.02 37.99,-26.57 61.24,-26.57c23.25,0 45.05,9.34 61.24,26.57c33.22,34.88 33.22,91.55 0,126.43l-22.63,23.87c-6.02,6.23 -15.78,6.44 -22.01,0.62c-6.23,-6.02 -6.44,-15.78 -0.62,-22.01l22.63,-23.87c22.01,-23.04 22.01,-60.62 0,-83.45c-20.55,-21.59 -56.67,-21.59 -77.43,0l-45.46,47.75c-22.01,23.04 -22.01,60.62 0,83.45c8.93,9.55 20.97,15.36 33.63,16.61c8.51,0.83 14.74,8.51 13.91,17.02c-0.62,7.89 -7.47,13.91 -15.36,13.91zm213.2,-45.26l-45.46,47.75c-16.19,17.02 -37.99,26.57 -61.24,26.57c-23.25,0 -45.05,-9.34 -61.24,-26.57c-33.22,-34.88 -33.22,-91.55 0,-126.43l22.63,-23.87c6.02,-6.23 15.78,-6.44 22.01,-0.62c6.23,6.02 6.44,15.78 0.62,22.01l-22.63,23.87c-22.01,23.04 -22.01,60.62 0,83.45c20.55,21.59 56.67,21.8 77.43,0l45.46,-47.75c22.01,-23.04 22.01,-60.62 0,-83.45c-8.93,-9.55 -20.97,-15.36 -33.63,-16.61c-8.51,-0.83 -14.74,-8.51 -13.91,-17.02c0.83,-8.51 8.3,-14.95 17.02,-13.91c20.14,2.08 39.03,11.21 53.15,26.16c33.01,34.67 33.01,91.55 -0.21,126.43z" fill="#ffffff" id="svg_8"/>
 </g>
</svg>